TITLE ""
FILE "Step2_Track01.mp3" MP3
  TRACK 01 AUDIO
    TITLE "Step2_Track01_01"
    INDEX 01 00:00:00
  TRACK 02 AUDIO
    TITLE "Step2_Track01_02"
    INDEX 01 00:00:20
  TRACK 03 AUDIO
    TITLE "Step2_Track01_03"
    INDEX 01 00:01:47
  TRACK 04 AUDIO
    TITLE "Step2_Track01_04"
    INDEX 01 00:02:27
  TRACK 05 AUDIO
    TITLE "Step2_Track01_05"
    INDEX 01 00:03:20
  TRACK 06 AUDIO
    TITLE "Step2_Track01_06"
    INDEX 01 00:03:58
  TRACK 07 AUDIO
    TITLE "Step2_Track01_07"
    INDEX 01 00:05:35
  TRACK 08 AUDIO
    TITLE "Step2_Track01_08"
    INDEX 01 00:05:72
  TRACK 09 AUDIO
    TITLE "Step2_Track01_09"
    INDEX 01 00:06:70
  TRACK 10 AUDIO
    TITLE "Step2_Track01_10"
    INDEX 01 00:07:12
  TRACK 11 AUDIO
    TITLE "Step2_Track01_11"
    INDEX 01 00:09:29
  TRACK 12 AUDIO
    TITLE "Step2_Track01_12"
    INDEX 01 00:09:50
  TRACK 13 AUDIO
    TITLE "Step2_Track01_13"
    INDEX 01 00:10:50
  TRACK 14 AUDIO
    TITLE "Step2_Track01_14"
    INDEX 01 00:10:67
  TRACK 15 AUDIO
    TITLE "Step2_Track01_15"
    INDEX 01 00:12:62
  TRACK 16 AUDIO
    TITLE "Step2_Track01_16"
    INDEX 01 00:13:38
  TRACK 17 AUDIO
    TITLE "Step2_Track01_17"
    INDEX 01 00:14:38
  TRACK 18 AUDIO
    TITLE "Step2_Track01_18"
    INDEX 01 00:14:52
  TRACK 19 AUDIO
    TITLE "Step2_Track01_19"
    INDEX 01 00:16:66
  TRACK 20 AUDIO
    TITLE "Step2_Track01_20"
    INDEX 01 00:17:26
  TRACK 21 AUDIO
    TITLE "Step2_Track01_21"
    INDEX 01 00:18:28
  TRACK 22 AUDIO
    TITLE "Step2_Track01_22"
    INDEX 01 00:18:47
  TRACK 23 AUDIO
    TITLE "Step2_Track01_23"
    INDEX 01 00:20:33
  TRACK 24 AUDIO
    TITLE "Step2_Track01_24"
    INDEX 01 00:20:64
  TRACK 25 AUDIO
    TITLE "Step2_Track01_25"
    INDEX 01 00:21:67
  TRACK 26 AUDIO
    TITLE "Step2_Track01_26"
    INDEX 01 00:22:00
  TRACK 27 AUDIO
    TITLE "Step2_Track01_27"
    INDEX 01 00:24:26
  TRACK 28 AUDIO
    TITLE "Step2_Track01_28"
    INDEX 01 00:24:46
  TRACK 29 AUDIO
    TITLE "Step2_Track01_29"
    INDEX 01 00:25:49
  TRACK 30 AUDIO
    TITLE "Step2_Track01_30"
    INDEX 01 00:25:63
  TRACK 31 AUDIO
    TITLE "Step2_Track01_31"
    INDEX 01 00:28:20
  TRACK 32 AUDIO
    TITLE "Step2_Track01_32"
    INDEX 01 00:28:52
  TRACK 33 AUDIO
    TITLE "Step2_Track01_33"
    INDEX 01 00:29:41
  TRACK 34 AUDIO
    TITLE "Step2_Track01_34"
    INDEX 01 00:29:57
  TRACK 35 AUDIO
    TITLE "Step2_Track01_35"
    INDEX 01 00:32:26
  TRACK 36 AUDIO
    TITLE "Step2_Track01_36"
    INDEX 01 00:32:51
  TRACK 37 AUDIO
    TITLE "Step2_Track01_37"
    INDEX 01 00:33:57
  TRACK 38 AUDIO
    TITLE "Step2_Track01_38"
    INDEX 01 00:34:05
  TRACK 39 AUDIO
    TITLE "Step2_Track01_39"
    INDEX 01 00:36:65
  TRACK 40 AUDIO
    TITLE "Step2_Track01_40"
    INDEX 01 00:37:15
  TRACK 41 AUDIO
    TITLE "Step2_Track01_41"
    INDEX 01 00:38:13
  TRACK 42 AUDIO
    TITLE "Step2_Track01_42"
    INDEX 01 00:38:30
  TRACK 43 AUDIO
    TITLE "Step2_Track01_43"
    INDEX 01 00:40:49
